/* XPM */
static char *_0c150f013e647a7c36b77cc4d6b83cb[] = {
/* columns rows colors chars-per-pixel */
"64 64 66 1 ",
"  c #CF853C",
". c #D28C3C",
"X c #D5933C",
"o c #D79B3D",
"O c #DA9D3B",
"+ c #DBA23C",
"@ c #DEAB3C",
"# c #FAA726",
"$ c #FAA927",
"% c #FAAE2A",
"& c #F5B52E",
"* c #FAB42B",
"= c #FABA2C",
"- c #E5A636",
"; c #E7A835",
": c #EBAB33",
"> c #E1A439",
", c #E1AD3B",
"< c #ECB335",
"1 c #EDBC36",
"2 c #E3B43B",
"3 c #E9B538",
"4 c #E5BB3C",
"5 c #E9BC3A",
"6 c #F1B131",
"7 c #F2BD33",
"8 c #FABF30",
"9 c #FCC32C",
"0 c #FDCC2D",
"q c #FBD42A",
"w c #FADD2B",
"e c #E5C13E",
"r c #ECC53B",
"t c #ECCB3C",
"y c #F4C334",
"u c #FAC533",
"i c #F4CB36",
"p c #FACD36",
"a c #FAC73B",
"s c #F1CB39",
"d c #FACB39",
"f c #EED43E",
"g c #EEDA3F",
"h c #FBD434",
"j c #FBDB36",
"k c #F2D43B",
"l c #FAD239",
"z c #F3DB3C",
"x c #FBDC39",
"c c #FAE627",
"v c #FAEC26",
"b c #FAE32A",
"n c #FAE928",
"m c #FAF326",
"M c #FEE136",
"N c #FFED36",
"B c #F2E33E",
"V c #FBE339",
"C c #F5EB3F",
"Z c #FAED3C",
"A c #F7F13E",
"S c #FAF43E",
"D c #FDFB3D",
"F c #FAF740",
"G c #FAFE43",
"H c None",
/* pixels */
"HHHHHHHHHHHHHHHHHHHHHHHHHHHmvvvvvvvvmHHHHHHHHHHHHHHHHHHHHHHHHHHH",
"HHHHHHHHHHHHHHHHHHHHHHmmnbwhhphplphhqwbnvmHHHHHHHHHHHHHHHHHHHHHH",
"HHHHHHHHHHHHHHHHHHHHmcwhppdddlddddpddadphwcmHHHHHHHHHHHHHHHHHHHH",
"HHHHHHHHHHHHHHHHHHvbhlaapppppppppppplpppaddhbvmHHHHHHHHHHHHHHHHH",
"HHHHHHHHHHHHHHHHvbhdalppppppppppppplpppdlllpalbmHHHHHHHHHHHHHHHH",
"HHHHHHHHHHHHHHmnhddpppppldpdppdlppdpllllp0duduupcmHHHHHHHHHHHHHH",
"HHHHHHHHHHHHHmwdapppppppdlpxxxxxjxxjp9=*===**==%*0mHHHHHHHHHHHHH",
"HHHHHHHHHHHmvhadplplppdjMxks14322345yyp0=**=====*%9nmHHHHHHHHHHH",
"HHHHHHHHHHmcpapplppddjjk5,OX........Xo@5sh0**=====%*cmHHHHHHHHHH",
"HHHHHHHHHmcddpplppljxs,X.XXO>;;:::->-OX.X@rh0**====&*bmHHHHHHHHH",
"HHHHHHHHmcddlpppilMs,..X>;%*=====9====6;O..@th=%====&%wmHHHHHHHH",
"HHHHHHHmvddppppdwV2X.O-6==9===&==========6>..2j9%====*%bmHHHHHHH",
"HHHHHHHvpdpppppMhO.X;*9==============*===99&+ +kp*====**nHHHHHHH",
"HHHHHHmhalplppMtX.O6========================9<..th*====%9mHHHHHH",
"HHHHHmwappppdMtX.-===================*=======9yO t0*8===%0mHHHHH",
"HHHHHndplppdMtXX:=9=====*==*===============%=%0xO t0%=*=*&bHHHHH",
"HHHHmhdpppdjzX.-========***%**%*=======&*****%=lx+.t0*===%9mHHHH",
"HHHHbdpppphM+.-9=======*hVVVVVVZp%====*9VVVVVxVVhxOXh=*===%qmHHH",
"HHHvhapppdM4.>========*=ZGSSSSSDh$====$hDSSSSSDCdhx.,h%===*8mHHH",
"HHHcalppdxk.X*========*9SAZZZZAZ9*&====VSAZZZASxddMr r0*===%qmHH",
"HHmhdplppM,.:=======*=%hGAZZZZSV=====*=ADAZZZZAjupdM,Oh===*&9mHH",
"HHvlppppjs.>========*%$=99VAZZDz$====*=09iZANAZdppdjz.50*==*=bHH",
"HmwdpdppM,.&9===*==*ijjhu%VSZZSu$======*#ySAZAz8plpdN2Op*===%qmH",
"HvhdplllkX>========*AGGGw*ZAZAA=*=======%hDNZDh=lppphzXs9*==%9mH",
"Hvldpldjr <=*=======jjhz=0SZZSV=======&*=VSZZD9=lpppdZ@@0*==*=cH",
"Hcpppldj,X8========%###$%zDZZSj*&======%9AZZAZ88lpppuMtop*===*wH",
"HMdpppllO,9========9jlj0*VAZNDi%=======$pSZZAV*9llldphz+y====%qm",
"mwapplxs.<9*===*===AGGGM=ZAZAA9$=======%jSZZFj%ulppplpV@59===%0m",
"vwdpplh1.1=======*=jzjz=9SZZAV==========VSZZF0%uldpppdN420*==*9n",
"vldppd04Xy========*###$$jDZZDj*=&=====*=ZAZAA=*dllpppdMr,h%==&9n",
"vhdpl994ou=======*9hhhi*VAZZSp%=======%iFZZAV*=lplplpdMf@0*==*=n",
"vhdpl*02+u=======*AGDGV=AAZZA9*=======%wFZZDj%9lpppppdMk@u*==*=n",
"vhdlu%0,+u========jVjV99AZZAV=*=======*VSZZDh#dlppplpdMg,u*==&=n",
"vhalu*04@0*======*##$##hDZZDV*=======*=ZAZZA9%pppppppuMk20*==*8n",
"vhpp=*04oi*======9hphi*zAAZSh$=====&=$uAZZAZ*9llpppppdMf20*==*=v",
"vjpp=*9rol==*==**ZGGGV=ZAZAA9**====*=*hDZZSj*ulplpplluZf20*==*9v",
"mwad=*9yok9*===*=zVwV9ySNZAZ=========%VSZZFi*llppppppdZt30*==%9m",
"Hbpu==*uot0**===*$$$$$hSZZAV**======*yAAZZZ9dlplppppppS43====*qm",
"Hbla*=%0+5w%====9hdp9=jFZZSx*=======%qDZZSjulppdlpppdpZ4y====*wH",
"Hvlu*=*04@j*==*%ZGDGZ%xSZZSV**=*=**%8AAZZSxdppppppkpuZz4u*==*=cH",
"Hvwa*===sXz9*===jVzV0$VAZZZA9#****$=ZSZZAZpdlpplppppdDt39===%9mH",
"HmMu==**q+eM%===***%=*VSZZZAAl8899hASZZZSxuppppppplujSeu*===%0mH",
"HHvu*==*9r+Z====&====%hAAZZZASAZZAFAZZZSVdpplplplppdSf39*===*bHH",
"HHmh*===*h+rb%=======*=ZAZZZNZSSAAZZZZSVudlpipppppujDey====%9mHH",
"HHHb*&==*9yoA9%===&===*9ADAZZZZZNZZZSAxdppppplpplddDg59*==**qmHH",
"HHHm9*=*=*h@5D*&=======%=VSDSSSAASAZVpdplpplpplppuZSe9====*8mHHH",
"HHHmb*===*=hogN$*=======%*9hjVVVVVxlpdppplppppppuxDtr=====%qmHHH",
"HHHHm9%===*9soFb$*==***==**%=udppdudplppppppplpuxDgr9*=&=%9mHHHH",
"HHHHHv&*===&0e+Gh%===98uuuppllpppppppppplppppduxDBe9*===*&bHHHHH",
"HHHHHmw%====%04,DNudpplhlllppppppplpplppppplddxDBt9=*===%0mHHHHH",
"HHHHHHm9%====*04@ADlddpppppplpplpllpplplppdupVDBr9**===%=mHHHHHH",
"HHHHHHHm=%===**0r@zDVduppplpppppppppppppdddjSDzs9=====&*nHHHHHHH",
"HHHHHHHmb=*====*9i2tADjdddppppppppppppddpjNDCfr=**===**bmHHHHHHH",
"HHHHHHHHmb**===**=034gSDVhpdudddddudppljZDAgsu=%====**bmHHHHHHHH",
"HHHHHHHHHmn&%=====*9u5egCSDZVjxhlxjVZZDSCzfy=*=====*%bmHHHHHHHHH",
"HHHHHHHHHHmn=%=====**9y1rfgBAAAASSAACBBksu=**=====%&MmHHHHHHHHHH",
"HHHHHHHHHHHmmu%*==&==**=9911rffggzgksy99***=====*%9vmHHHHHHHHHHH",
"HHHHHHHHHHHHHmq=%=8=====**=999=======***===*===&&qmHHHHHHHHHHHHH",
"HHHHHHHHHHHHHHmn9*%========***%*==**=========*%9bmHHHHHHHHHHHHHH",
"HHHHHHHHHHHHHHHHmw9*%*=====================*%9wvHHHHHHHHHHHHHHHH",
"HHHHHHHHHHHHHHHHHmmb9=%**============****%&9wmmHHHHHHHHHHHHHHHHH",
"HHHHHHHHHHHHHHHHHHHHmnq9=*&%%=&***&*%6%89qcmmHHHHHHHHHHHHHHHHHHH",
"HHHHHHHHHHHHHHHHHHHHHHmmvbq0999=8=99qqbvmmHHHHHHHHHHHHHHHHHHHHHH",
"HHHHHHHHHHHHHHHHHHHHHHHHHHmmmvvvvvvvmmHHHHHHHHHHHHHHHHHHHHHHHHHH"
};
