/* XPM */
static char *c92d7bcef12346f1dc89265541769cfe[] = {
/* columns rows colors chars-per-pixel */
"32 32 70 1 ",
"  c #DE9A37",
". c #D79239",
"X c #D99438",
"o c #D69C3E",
"O c #DB9D3A",
"+ c #E19C35",
"@ c #DBA43D",
"# c #DDA83C",
"$ c #FAA827",
"% c #F1AE2F",
"& c #FAAE2B",
"* c #FFB527",
"= c #F6B42E",
"- c #FAB32B",
"; c #F7B82D",
": c #FBBA2B",
"> c #E2A037",
", c #ECA731",
"< c #EDAD34",
"1 c #E3AC39",
"2 c #EBB335",
"3 c #EDBD36",
"4 c #E4B43B",
"5 c #E8B538",
"6 c #E6BA3C",
"7 c #EABC3A",
"8 c #F1B632",
"9 c #F4BB31",
"0 c #FABF31",
"q c #FCC22C",
"w c #FBCC2B",
"e c #FAD42A",
"r c #FADD2B",
"t c #EDC33B",
"y c #E7C83F",
"u c #EDCE3C",
"i c #F5C232",
"p c #FAC533",
"a c #F5CB35",
"s c #FACC35",
"d c #FAC63A",
"f c #F2CB39",
"g c #FACA39",
"h c #EFD33C",
"j c #F5D136",
"k c #FCD336",
"l c #FCDB36",
"z c #F3D33B",
"x c #FAD438",
"c c #F5DC3A",
"v c #FCDC39",
"b c #FAE627",
"n c #FAEC27",
"m c #FAE32A",
"M c #FAE929",
"N c #FAF027",
"B c #FFE135",
"V c #F3E33E",
"C c #FAE43A",
"Z c #F6EB3E",
"A c #FAEB3C",
"S c #FAF43E",
"D c #FAF83F",
"F c #D8A540",
"G c #E5C640",
"H c #E6CB40",
"J c #F2E740",
"K c #F6E940",
"L c #FAFB40",
"P c None",
/* pixels */
"PPPPPPPPPPPPbmrrlrBMPPPPPPPPPPPP",
"PPPPPPPPPMrlgggdgggslrMPPPPPPPPP",
"PPPPPPPNrggdgkkxvxldgddrNPPPPPPP",
"PPPPPPMsdgklvat77tiqq*;&:mPPPPPP",
"PPPPPmddslj4@OOO+OO@10q*&&rPPPPP",
"PPPPmddll6o ,;::::;%>o4q:-&rPPPP",
"PPPMgglx#.%q::::::::q-@@i:-&mPPP",
"PPnkdkvo+*q:&&&&:::;&**<Fq:&:NPP",
"PPrdsl#+q::-pkwwq-;:wswBt@q:&wPP",
"Pnxdv6X:::-qLDLSq-&kLSDAv61q::mP",
"Prdkxo&:;-&:cADC;--pCKDCpl48:&eP",
"Pkdv4+q:::CAqCLc-;:&:LZkdlt1q-qP",
"Msgx#%:::-wawKDw-::$kLApssc6;&:b",
"mgkf1:::=wAakLZq--:-BDC:kglt2:&r",
"mgx31::;-:xqlDA-:::;ADl;kgxu8:&e",
"rgs25::::lCqCDl-:;-qSSp0xgkz3:&e",
"mgq<2q-::pwwSDw-;:$eDSqdjskz7:&e",
"ms:26q;-wAdaDZq-:;-cDC:gskkh3:&e",
"mg-87q--ikqCDA--:=:ASlixgslc9:-r",
"Md-;yq-:lC:CDC-&&$wSSldgjdlz=&:b",
"Pk&q6t*-jkqCSSk::jSSCsgksgcu:&iP",
"Pr&:8yw*-&$lDSZSADDAjsskdxJ9*&eP",
"PM:;:7h:=::-lSSDSSCkdksssAu*&:bP",
"PPe&:;ye*&:--qklvxddjssdCV;:&wPP",
"PPN:&:9Hlp:dppdspdkswddAJ0*&:MPP",
"PPPb;&:9HACggkgjkjdddlAVi&-&mPPP",
"PPPPr&&:;tVKlxgdssjvAKc=*;&rPPPP",
"PPPPPm&&:&8fVCACCAZZci--&&rPPPPP",
"PPPPPPb:&&*:=iajjji0---&:mPPPPPP",
"PPPPPPPNe:&=-*&-*&&-&&:eNPPPPPPP",
"PPPPPPPPPneq:;-&&-;*qenPPPPPPPPP",
"PPPPPPPPPPPPbreeerrmPPPPPPPPPPPP"
};
