/* XPM */
static char *f311e84799004149d25d55a555102b34[] = {
/* columns rows colors chars-per-pixel */
"128 128 73 1 ",
"  c #CF7939",
". c #D07D39",
"X c #D2843A",
"o c #D68D3A",
"O c #D6933B",
"+ c #D9943A",
"@ c #D7983D",
"# c #DB9C3A",
"$ c #DDA33B",
"% c #DEAB3D",
"& c #DFB13E",
"* c #FAA526",
"= c #FAAA27",
"- c #FAAE2A",
"; c #F5B42F",
": c #FAB32B",
"> c #FAB92C",
", c #E4A537",
"< c #E7A936",
"1 c #ECAC33",
"2 c #E0A339",
"3 c #E1AC3B",
"4 c #F0AF31",
"5 c #ECB336",
"6 c #E2B33C",
"7 c #E5BC3D",
"8 c #E9BC3B",
"9 c #F1B130",
"0 c #FAB630",
"q c #F3BE34",
"w c #FABE31",
"e c #FBC32C",
"r c #FCCB2C",
"t c #FBD32A",
"y c #FADC2B",
"u c #E6C23E",
"i c #EAC43C",
"p c #EBCB3D",
"a c #F4C334",
"s c #FAC533",
"d c #F3C837",
"f c #FACE37",
"g c #FAC73B",
"h c #F0CE3A",
"j c #FACB39",
"k c #EED33D",
"l c #EFD93E",
"z c #F7D337",
"x c #FBD434",
"c c #FBDA34",
"v c #F1D43B",
"b c #FAD239",
"n c #F3DC3C",
"m c #FADC39",
"M c #FAE727",
"N c #FAEC27",
"B c #FAE42A",
"V c #FAEA28",
"C c #FAF326",
"Z c #FAF826",
"A c #FEE335",
"S c #FFEA36",
"D c #F5E33D",
"F c #FBE43A",
"G c #F7EA3E",
"H c #FAED3C",
"J c #FBF43D",
"K c #FEFC3D",
"L c #EFDB40",
"P c #F3E640",
"I c #F9F740",
"U c #FBFB40",
"Y c None",
/* pixels */
"YYYYYYYYYYYYYYYYYYYYYYYYYYYYYYYYYYYYYYYYYYYYYYYYYYYYYYYYYNNNNNNNNNNNNNNYYYYYYYYYYYYYYYYYYYYYYYYYYYYYYYYYYYYYYYYYYYYYYYYYYYYYYYYY",
"YYYYYYYYYYYYYYYYYYYYYYYYYYYYYYYYYYYYYYYYYYYYYYYYYYNNNNNCCCNCNNNNNNNNCCCNCNNNNNYYYYYYYYYYYYYYYYYYYYYYYYYYYYYYYYYYYYYYYYYYYYYYYYYY",
"YYYYYYYYYYYYYYYYYYYYYYYYYYYYYYYYYYYYYYYYYYYYYYNNNNCCNNMByccbxzxrzzxxxxccBMNCCNNNNNYYYYYYYYYYYYYYYYYYYYYYYYYYYYYYYYYYYYYYYYYYYYYY",
"YYYYYYYYYYYYYYYYYYYYYYYYYYYYYYYYYYYYYYYYYYYNNCCNNMBcxzfjjjjgsjjjjjjfjjjgjjfxcBMNNCCNNYYYYYYYYYYYYYYYYYYYYYYYYYYYYYYYYYYYYYYYYYYY",
"YYYYYYYYYYYYYYYYYYYYYYYYYYYYYYYYYYYYYYYYYNNNCMycxjjjjjffffffffbfffffbfffffffjjjfxyBNCNNVYYYYYYYYYYYYYYYYYYYYYYYYYYYYYYYYYYYYYYYY",
"YYYYYYYYYYYYYYYYYYYYYYYYYYYYYYYYYYYYYYNNNCNBxfjjjjffffffbffffffffffffffffffffffjgjfzyNNCNNYYYYYYYYYYYYYYYYYYYYYYYYYYYYYYYYYYYYYY",
"YYYYYYYYYYYYYYYYYYYYYYYYYYYYYYYYYYYYVNCNBcfgjjfffffffffffffffffffffffffffffffffffffjjfcBNNNNYYYYYYYYYYYYYYYYYYYYYYYYYYYYYYYYYYYY",
"YYYYYYYYYYYYYYYYYYYYYYYYYYYYYYYYYYNNCNyzjjffffffffffzfffffffbffffffffffbffffffffffffffggxyNCNNYYYYYYYYYYYYYYYYYYYYYYYYYYYYYYYYYY",
"YYYYYYYYYYYYYYYYYYYYYYYYYYYYYYYYNNCNBfgjffbffffffffffffbfffffffffffbfffffffffffffffbffffjgfyNCNNYYYYYYYYYYYYYYYYYYYYYYYYYYYYYYYY",
"YYYYYYYYYYYYYYYYYYYYYYYYYYYYYYYNCNyzgjfxffffffffffffffffffffffffffffbfffffffjbfffffffffffffgfyNCNNYYYYYYYYYYYYYYYYYYYYYYYYYYYYYY",
"YYYYYYYYYYYYYYYYYYYYYYYYYYYYYNNCMbgjffffffffbfbffffffffffffbfffffffffffffffffffbzfbzbzzfbbbbfjjAZCNYYYYYYYYYYYYYYYYYYYYYYYYYYYYY",
"YYYYYYYYYYYYYYYYYYYYYYYYYYYYNCNyjjfbfffffffffffffffbbfffffffffffbfffffbfbfbbbbbffsjrjsessswsssswrBZNVYYYYYYYYYYYYYYYYYYYYYYYYYYY",
"YYYYYYYYYYYYYYYYYYYYYYYYYYNNCBfgjbffffbfffffffffffffffffffffsfffjjfssffbbxffssw>>>>:::::::>:::>:->xCCNYYYYYYYYYYYYYYYYYYYYYYYYYY",
"YYYYYYYYYYYYYYYYYYYYYYYYYNCNcgjffffffffffbfffffffffffjjfbmmFFFFSFSFFFFbr>-:->:>>>:>>>>>>>>>>>>>>>:-eNCVYYYYYYYYYYYYYYYYYYYYYYYYY",
"YYYYYYYYYYYYYYYYYYYYYYYYNCNfgfffffffffffffffffffffsbmSHFFnvkhpiiiiphknnmmAcr>-=:>>>>>>>>>>>>>>>>>>>->yZNVYYYYYYYYYYYYYYYYYYYYYYY",
"YYYYYYYYYYYYYYYYYYYYYYNNNBjjfffffffbfffffbffffjfmFJFvh832#O+oo+oo+ooo+#$67pnFScr:-:>>>>>>>>>>>>>>>>>:-tCCVYYYYYYYYYYYYYYYYYYYYYY",
"YYYYYYYYYYYYYYYYYYYYYNNCygffffffffbfffffffffjbFSFlu%+oo+####2###########+oo+$ulGAye::>>>>>>>>>>>>>>>>:-sCCNYYYYYYYYYYYYYYYYYYYYY",
"YYYYYYYYYYYYYYYYYYYYNNNygjfffffbfffffffffffbSFv7$oo+######################$#+oo#7kDAr-->>>>>>>>>>>>>>>>-eNCVYYYYYYYYYYYYYYYYYYYY",
"YYYYYYYYYYYYYYYYYYYNNCzgffffffffffbffffjsmJHp$oo+#######+@@@+#######@@@@+##$####oo$iGSr-::>>>>>>>>>>>>>>->VCNYYYYYYYYYYYYYYYYYYY",
"YYYYYYYYYYYYYYYYYYNNNzgfffffffffffffbjsmJFi#o+#2####+#+2,,1499;:;;;9944<,2#++#####@o#uDSr-:>>>>>>>>>>>>>0->VCNYYYYYYYYYYYYYYYYYY",
"YYYYYYYYYYYYYYYYYNCNfsfbffffbfffffffsxSDi+o+#####@##14:>>>ee>>e>e>>>>e>e>>>:1,#+#####o+uGS>=:>>>>>>>>>>>>>:0BCVYYYYYYYYYYYYYYYYY",
"YYYYYYYYYYYYYYYYNNCfjffffffbfffffffsAKl#o#$###@O#<;>>e>>>>::>>>>:>>>>>>>>>e>>>;42@+####oopKy::>>>>w:>>>>>>>:>VCNYYYYYYYYYYYYYYYY",
"YYYYYYYYYYYYYYYMNCxjfffffffffffffgrJG6o#####@@,9>>e>>>>>>>>>>>>>>>>>>>>>>>>>>>>e>:1#@+###o&DS>->>>>>>>>>>>>>:>NCNYYYYYYYYYYYYYYY",
"YYYYYYYYYYYYYYYNCxjffffffbfffffbsmKp+o####O#1;>e>>>>>>>>>>>>>>>>>>>>>>>>>>>>>>:>>>e>4$@#$#ooiKx-:>:>>>>>>>>>>-wNCNYYYYYYYYYYYYYY",
"YYYYYYYYYYYYYYNCcgfffffffffffffgAJ7o+$##++,:e>>>>>>>>>>>>>>>>>>>>:>>>>>>>>>>>>>>>w>>>e92+###o3Jc-:>:>>>>:w>:>>9eCCYYYYYYYYYYYYYY",
"YYYYYYYYYYYYYNCBjbffffbfffffbjjSG$o###+@,:ee:>>>>>>>>>>>>>>>:>>>>>>>>>>>>>>>>>>>>>>>>>e>5$+##o@DS>:>>>>>:>>>>>>-tCNYYYYYYYYYYYYY",
"YYYYYYYYYYYYNCNjjfffffffffffsfJD++###@@9e>>>:>>>>>>>>>>>>>>>>>>>>>>>>>>>>>>>>>>>>>>>>>>>>r&O+$+oLJ>:>>>>>>>>>>>>-yZNYYYYYYYYYYYY",
"YYYYYYYYYYYYNNxjffbffffffbfjfJv++#2#+,;e>>>>>>>>>>>>>>>>>>>>>>>>>>>>>>>>>>>>>>>>>>>>>>:>:>ri#+2+opJ>->>>>>>>>>>>:>VCNYYYYYYYYYYY",
"YYYYYYYYYYYNCcgffffffffffffrJvo+###+4e>>>>>>>>>>>>>>>>>>>;>>>>>>>>>>:>>>>>>>>>>>>>>>>>>>>>>ef3o##oiKe->>>>>>>>>>0:wCNYYYYYYYYYYY",
"YYYYYYYYYYVCBgffffffffbffffJno+#2++9e>>>>>>>>>>>>>>>>>>>>>>>>>>>>>>>>>>>>>>>>>>>>>>>>>>>>>>:rA7o##XiK>:>>>>>>>>>>>-tCNYYYYYYYYYY",
"YYYYYYYYYYNNxjfbfffbfffffsJv++$#+#>e::>>>>>>>>>>>>>>>>>>>>>>>>>>>>>>>>>>>>>>:>>>>>>>>>>>>>>:wxAio+#opJ::>>>>>>>>>>>:NCVYYYYYYYYY",
"YYYYYYYYYNCygfffffffffbfsHDo+#$+,>e>>>>>>>>>>>>>>:>>>>>>>>>>>>>>>>>>>>>>>>>>>>>>>>>>>>>>>>>>>jfFh++#olS=>>>>>>>>>>0-eCNYYYYYYYYY",
"YYYYYYYYNCVjffffbffffffsFJ#o$#@#>e>>>>>>>>>>>>>>>>>>>>:>>>>>>>>:>>>>>>>>>>>>>>>>>>>>>>>;>>>>>jbjSko#+oDA=>>>>>>>>>>>-xCNYYYYYYYY",
"YYYYYYYYNNxjfffffffffbfbJ2+##+2>>>>>>>>>>>>>>>>>:::=:::::=:::;:-:>>>>>>>>>>>>>>:=-:;=-::;---=0fsjSko#+@Hx=>>>>>>>>>>0>NCYYYYYYYY",
"YYYYYYYNCBjffbffffffffjK8o####>>>>>>>>>>>>>>>>>-scczxxxnzztzzcczx>:>>>>>>>>>>>:scxzccxnxxxzcxcFFfsSho#o%Je->>>>>>>>>>-tZNYYYYYYY",
"YYYYYYYNCxgffffffffffgSno####>e>>>>>>>>>>>>>>>>-zUJJJJJJKJKJJJJUJe:>>>>>>>>>>>:cUKJJJJJJJKJJJJJJzjfJio#ohJ-:>>>>>>>>>>>VCYYYYYYY",
"YYYYYYNCBjfffffffffffmH#+##@;>>>>>>>>>>>>>>>>>:>DJHHHHHHGHHHHGHJn:>>>>>>>>>>>:>FJHHHHHHHHHHHHHJDffjfJ6o#oLc->>>>>>>>>>-rCVYYYYYY",
"YYYYYYNNbjffffbfffbffJ6o2#@4e>>>>>>:>>>>>>>>>>>>HJHHHHHHHHHHHJHJx:>>>>>:>>>;>:eJJHHHHHHHHHHHHHJmsffjbJ#++$Je:>>>>>>>>>:>VCYYYYYY",
"YYYYYNNMjffffffffffsAno##@,>>>>>>>>>>>>>>>>>>>-rJJHHHHHHHHHHHHHJe:>>>>>>>>>>>:xJHHHHHHHHHHHHHHJbffbfsAF++opS=>>>>>>>>>>-tCNYYYYY",
"YYYYYNCxjfbffffffffxJ$+##@>>>>>>>>>>>>>>>>>>>>-xJHHHJGHHHHHHHHJH>:>>>>>>>>>>>;zJHHHHHHHHJHHHHHHzffffffJpo#OHr>>>>>>>>>>:wNNYYYYY",
"YYYYYNMfjfffffffffsJvo##@9e>>>>>>>>>>>>>>>>>>>:FJJHJGHHHHHHHHHJF>>>>>>>>>>>>>:DJHGJHHJHHHHHHHJFffffffjbK$+o7J:>>>>>>:>:>:yCNYYYY",
"YYYYNCygffbfffbfffbH$+$O,>>>>>>>>>>>>>>>>>>>>:eJUJJJJHHHHHHHHHJc=>>>>>>>>>>>-eKJJJJJHGHHHHHHHJcdffffffsSDo#Onx=>>>>>>>>>:eCNYYYY",
"YYYYNNxjfffffffffgSpo###>>;>>>>>>>>>>>>>>>>>>:ezxxztcHHHHHHHHHJd:>>>>>;>>>>:>ezczctzJHHHHHJHHJfsfffffffjKioo6S:>>>>>>>>>>>BCYYYY",
"YYYNCMjffffffffffxH$+#O<e>>>>>>>>>>>>>>>;:::::;===:*dKHHHHHHHJJe:>>>>>>>>>>>>>:=::*sJHHHHHHHJGesfffffffjFH#++Dx->>>>>>>>>-rCNYYY",
"YYYNCcgfffffffffjSko##$>>>>>>>>>>>>>>>;:>>>we>ewa>>:nJHHHHHHHJD::>>>>>>>>>>>>>>>>>;cJJHHHHHHJm>fbfbffffffKpoouF->>>>>>>>>:wVNYYY",
"YYYNVbjfffbfbffffS6o#+5e>>>>>>>>>>>>>>>:rJJHHHHHJc=>SJHHHHHHJJc:>>>>>>>>>>>>>>>>>:>FJGHHHHHHKt-sbfffffffsmH#O#Fr;>>>>>>>>>:BCYYY",
"YYNCBjfffffffbfjmD####e>>>>>>>>>>>>>>>>:zUJHJHHJJx=eJJHHHHHHHJr->>>>>>>>>>>>>>>:>:eHJHHHHHHHJs-fffffffbfjfK8oolA=>>>>>>>>>-tCNYY",
"YYNCcjfbfffffffsJio#O5e:>>>>:>>>>>>>>>>>DJHHHHHJJ>=fJGHHHHHHHHe:>>>:>>>>>>>>>>>>>:dJHHHHHHHHHw>fbffffffffsSPOO3H>>>>>>>>>>:rCNYY",
"YYNCxjffffffffffF3+##q>>>>>>>>>>>>>>>>:eJJJJJJJJD>=xJHHHHHHHJD:>>>>>>>>>>>>>>>>;>:cKHHHHHHHJF:>sbffffxffxsbK6oOlr:>>>>>>>>:>VCYY",
"YYNVzjffbfffbffFno#+3s>>>:>>>>>>>>>>>>>>redrssare>>GJJHHHHJHJc->>>>>>:>>>>>>>>>>:>DJHHHHJHGJz->dffbffffffffJnOopA->>>>>>>>>:yCYY",
"YNNMjfffffffffjHio#O5r:>>>>>>>>>>;:>>>>>:-::::::::eJJHHHHHHGJd:>>>>>>>>>>>>>>>>>:sJJHHHHGHHJr->fbfffffffffjAK#o6F:>>>>>>>>>-tCVY",
"YNCyjfffffffffjS6+##s>>>>>>>>>>>>>>>>>>::::>::::>:rJHHHHHHHJJe:;>>>>>>>>>>>>>>>>=fJHHHHHHHJJe:>fbffffffffbjbK8o#F>>>>>>>>>>-rCNY",
"YNCcjffffffbfjbF##O6r:>>>>:>>>>>>>>>>>>>>>>>e>>>>:nJHHHHHHHJF:>>>>>>;>>>>>>>>>>>-cJHHHHHHHHG::>zfffbffzfffffKvOovx::>>>>>>>:eNNY",
"YNNxjfffffffffFv+#Oir>>>>>>>>>>>>>>>>-rJHDHHGHJx=:FJHHHHHHHJc:>>>>>>>>>>>>>>>>>:>DJHHHHHHHJc->>dfffffffffffjFH#opc:>>>>>>>>>>MCY",
"YNNbjffffffffsHpo##d>>>>>>>>>>>>>>>>>-zKJJJJJJJx=eJJHHGHHHHJx:>>>>>>>>>>>>>>>>>:eHJHHHHHHHJz-:exbffffffffffjmK3X7m:>>>>>>>>>>yCY",
"YNBfffffffffffS7o#3r>>>>>:>>>>>>>>>>>>DJHHHHHHJe=fJHHHHHHHHJe:>>>>>>>>>>>>>>>>>-dJHHHHHJHJJe:>effffffffffffjbKio3F>:>>>>>>>>-xCY",
"YCyjffffffffbem6++6x->>>>>>>>>>>>;>>:>JJJJJJJIG>=xJJHHHHHHJG>;>>>>>>>>>>>>>>>>>=xJHHHHHHHJF>>:ebffffbfffffffbKpo$Fr:>>>>>>>:-rCN",
"NCyjffxffffbr>F3+o8x:>>>>>>>>>>>>>>>>>rfrddrrrs;:FJHHHHHHHJD:>>>>>>>>>>>>>>>>>>:DJHHHHHHHJx->:sbfffffffffffffJF+Onr->>>>>>>>-rCN",
"NCyjfffffffbweD$#+pr:>>>>>>>>:>>>>>>>>-::::::=::>HJGHHHHHHJt=>>>>>>>>>>:>>>>>>>>HJHHHHHHHIs:>:szfbffbfjbfffffFK3oLy->>>>>>>>-sCV",
"NNcjfffzffbf:rn##Odr>>>>>>>>>>>>>>>>>::>:>::>:::rJHHHHHHHHJs:>>>>>>>>>>>:>>>>;-rJHHHHHHHHJr->>jbfffffffffbffsFK3Xpc=>>>>>>>>;eNN",
"NNxjffffffbe=xn++#ve>>>>>>>>>>>>>>>>>>>>>>>>>>>:zJHHHHHHHJG>:>>>:>>>>>>>>>>>>>:cKGHHHHHHJF>>:wffffffffffffffjFK8.pA:>>>>>>;>>>NC",
"NCxjfffffbf>-xn+@$x>>>>>>>>>>>>>>>>:rHGFFSFFJc:-GJHHHHHHGJc:>>>>>>>>>>>>>>>>>>:FJHHHJHHHIm:>:sbffffffffffbffsmKiXuA->>>>>>>>>>NN",
"NCtjzffffbs:-xn++%m>>>>>>>>>>>>>>>>=zUJJJJJJKx=qHJHHHHHHHJx=>>>>>>>>>>>>>>>>>:>JJGHHHHHHJx->>sbfbfbfffbfffffjmKp.uA:>>>>>>>>>wNN",
"NNzgffffbfw::xv++3m>:>>>>>>>>>>>>>::mJHHHHHJJa=rJHHHHHHHJJa:>>>>>>>>>>>>>>>>>-dJHHHHHHHGJe->>fbfffffffffffffsmKhXuA:>>>>>>>>:>NN",
"MCzjfbfffr:>-xk++%c>>>>>>>>>>>>>>>:eJJJJJJJKF>=xJHHHHGHHJH>>;:>>>>>>>>>>>>>>>-yJHHHHHJHJG>>>wfffffffxfffxfffjmKhXiF:>>>>>>>>:>MN",
"NCxjffffbe:>-yl++&F>>>>>>>>>>>>>>>>>zxrrfrdxr>>DJHHHHHHHJB:>>>>>>>>>>>>>>>>>>:DJHHHHHHJJn:>:sbffzfffffffffffsmKvXiA:>>>>>>>>>>MC",
"NCxjfffff>>>:xno+&A>>>>>>>>>>>>>>>>>-::-:-:--:>HJGHHHJHHJz->>>>>:>>>>>>>>>:>:>GJHHHHHGHJy->:jzfbffffbfffffffjmUvXiA:>>:>>>>>>>VN",
"NNcjfffbf:>>>xn++3F>:>>>>>:;>>>>>>>::;:;::;>>-sJHJHHHHHHJf->>>>>>>>>>>>>>>;>:sJHHHGHHHHJr->>bfffffffffffffffsmKkXpA->>>>>>>>>wVC",
"NCtjfffbe>>>:rm#o2De:>>>>>>>>>>>>>>:>>>>>>>>>-tKHHHHHHHJHe:>>>>>>>>>>>>>>>>>:xJJHHHHHHJG;:>sbffffffffffffzffjFKpXpy->>>>>>>>:eNN",
"MCygfffxw>>>:rD$+$Fr:>>>>>>>>>>:>:eDFDFFFFHc;:mJHHHHHHHJn:>>>>>>>>>>>>>>>>>>=cJGHJHHHJJc::>fffffffffffffffffsFKpXkc->>>>>>>>-eCN",
"NNyjfffj>:>>>>F%O#Dr::>>>>>>>>>>>:rUJJJJJJKc=>DJHHHHHHGJt->>>>>>>>>>>>>:>>>:>DJJHHHHHHJx::rbfbffbfbfffbffffffHKionx->>>>>>>>;rCV",
"YCyjffzj>>>>:>m6o+Dy->>>>>>>>>>>>;cJHHHHHJJd=eJJHHHHHHJJs:>>>>>>>>>>>>>>>>;:rJHHHHHHGHJs->fffffffffffffffffjfHK5oDr>>>>>>>>>-rCV",
"YCBjffzs:>>>>:Auo+LA->>>>>>>>>>>>>JJJJJJJIJ>-xJHHHHJHHJG>:>>>>>>>>>>>>>>>>>-zJHHHHHHHJH>:sbffffbfffjfbffffffbJJ3@F>>>>>>>>>>-tCY",
"YNNxjfbs:>>>>-cp+opS:>>>>>>>>>>>>>xrzxfztxz;-cJHHHHHHHJn:>>>>>>>>>>>>>>>>>>;FJHHHHHHJJc:>fbffffffffbfffffffjmJJ#&A:>>>>>>>>>-yCY",
"YNNxjfbs:>>>>:tn+o8K>>>>>>>>>>>>>>-::::=:=::>GJHHHHHHGKc::>>>>>>>>>>>>>>>>:eHJHHHHHHGJf=sbfbfjfffffbfffbfffgmKnouA->>>>>>>>>>BCY",
"YNCcgffs:>>>>:em#o3Ur->>;>>>>>>>>>::::>>:>::>HJHHHHHHHJc:>>>>>>>>>>>>>>>>>=tIHHHHHHHJJ>>bffffbfffffffffffffjHKhXvx->>>>>>>>:eNNY",
"YNCyjfbw>>>>>>:F6o#Ic->>>>>>>>>>>>>;::>:>>>:sJHHHHHHHHJx=>>>>>>>>>>>>>>;>>>DJGJHHHHHJF>fbffffbffffffffffffjbJK7onr:>>>>>>>0-rCNY",
"YNNBjfzw>>>:>>-Aio+nS:>>>>>>>>>:>FFFFBFDGc::rJHHJHHHHHJz:>>>>>>>>>>>>>>>>-sKHHHHHHHHIfwbfffbffffbfbfffffffjmJK$$F:>>>>>>>>>-tCNY",
"YYNNbff>>>>>>>>rkOopK>:>>>>>>>>-rUJJJJJJKc--zJHHHHHHHHKz::>>>>>>>>;>>>>>::DJHHHHHHHJFsjffffffffbfffffbfffffFKDouA->>>>>>>>>:yCYY",
"YYNCbgbe:>>>>>>>F%o3Kz->>>>>>>>-zJHJGHHHJd::xJHHHHHHHHKn:>>:>>>>:>>>>>>>=cKHHHHHHHHJmjfbffffffffffffffffzffSKhXnr->>>>>>>>>>VCYY",
"YYNCcjf>>>>>>>>-ApoODS:>>>>>>>>>JKIJJJJUIe:-xJJHHHHHHHJH>->>>>>>>>>>>>:=fJJHHHHHHHHJzjfffffffffffffffffffsmJU3#S>>>>>>>>>>:eCNYY",
"YYNNBjbw:>>>>>>:xPOoiUe:>>>>>>:>zxxzztxxf>>-xJHHHHHJHHJJn:->>;>>>>>>>->xJJHHHHHHHHJFsfffffbffffffffbffzffjHKHOpA->>>>>>>>>-tCNYY",
"YYYNNzbw:>>>>>>>:S&X3Um->>>>>>>>--:-=:--->>-xJHHHHHHHGHHJHe-=:-::-=::dFKJGHHHHHHHJHxfffffffffbffffffffffgxHKkoHr->>>>>>>>>:yCYYY",
"YYYNNcgw>>>>>>>>=cLo+nK>:>>>>>>>>>>>>>>>>>>:sJJHHHHHHHHHHJHczrrdrrfzFJJHHHHHHHHHHJndffzfffbffffffbfffffffFKK$3S->>>>>>>>>:wNNYYY",
"YYYNCBbs:>>>>>>>>>F$o7Uc->>>>>>>>>>>>>>>>>>:>HJHHHHHHHHHHHJJJJJJJJJKJJGHHHHHHHHHJFfffffffffffffffffffzfsmJKnXlx->>>>>>>>>-tCNYYY",
"YYYYNNxg:>>>>>>>>=Sp.#HKw->>>>>>>>>>;>>>>>>::nJHHHHHHHHHHHHHHHHHHHHHHHHHHHHHHHHJHsffffffffjbfffffffffffjDJK3$S:>>>>>>>>>>>MCYYYY",
"YYYYNCBw:>>>>>>>>:rH#oiKc->>>>>>>>>>>>>>>>>>:aJJHHHHHHHHHHHHHHHHHHHHHHHHHHHHHHJHjjffffffbfffbfbfffbfffsmJKFovy->>>>>>>>>-rCNYYYY",
"YYYYYNVf>>>>>>>>>>=SkX+DKs->>>>>>>>>>>>>>>>>>-cKGHHJGHHHHJHHHHHHHHHHHHHHHHHHHJHjsfbffffffffffffffffffjjHHK3%J:>>>>>>>>>>:xCVYYYY",
"YYYYYNCx:>>>>>>>>>:>J2.8KH::>>>>>>>>>>>>>>>>>::HKHHHHHHHHHHGHHHHHHHHHHHHHHHJKFjsfffbffffbffffffffffffsFJKFoPx:>>>>>>>>>0>NCYYYYY",
"YYYYYNCB>:>>>>>>>>>-Alo+DKx:>>>>>>>>>>>>>>>>>>:>HKHHHHHHHHHHHHHHHHHHHHHHHJJHbfjffffffffffffffbfffbffjxJHK26S->>>>>>>>>>-tCVYYYYY",
"YYYYYYNCe->>>>>>>>>:>J7 &KJs->>>>>>>>>>>>>>>>>>::nJJHJHGHHHHHHHHHHGJHHHHJHmffjfffffffbfffffffffffffjjHJKpoHr:>>>>>>>>>>0NCYYYYYY",
"YYYYYYNCy:>>>>>>>>>>-rH+XhKS::>>>>>>>>>>>>>>>>>>;-xSJJJJHHHHHHHHHHHHHJJHFzjjffffbffffffffffbfffffffjFJJJ+pA=>>>>>:>>>>-rCNYYYYYY",
"YYYYYYYNCr->>::>>>>>:-SnXoHKD::>>>>>>>>;>>>>>>>>>>=:rxFHIJJJIJJJJJHSHmbzsjffffffffffffffffbffffffzjcJHK3&J:>>>>>>>>>>>>NCYYYYYYY",
"YYYYYYYVCy0>>>>>>>>>>:>Ju 3KKz->>>>>>>>>>>>>>>>>>>>>-:>>sxczcmmFDzzzjjjfffzfffffffffbfbffffffffffszJHKv+Hr->>:>>>>>>0-tCVYYYYYYY",
"YYYYYYYYNCr->>>>>>>>>>-eJ$.pKJz=>>>:>>>>>>>>>>>>>>>>>>:--->>wsjjsjsfffffffffffffffffffffbfffffbfsbJHKDoDx->>>>>>>>>>:>VCYYYYYYYY",
"YYYYYYYYVCV;:>>>>>>>>>>=xJ+XkKJt->>>>>:>>>>>>>>:>:::;>wesjffbfffzfffffffffffffzfffbffffffffffffjzJJJJ@kA->>>>>>>>>>>-yCVYYYYYYYY",
"YYYYYYYYYVCt->>>>>>>>>>>-FGXoDKJf-:::>>:>>>:>:>>>wwesfbbbbffffbffbfffffbffffbfffffffffffffffffszHJJK27K:;>>>>>>>>>>-eCNYYYYYYYYY",
"YYYYYYYYYYCCw:>>>>>>>>>>>-SnX+GKJz:>>>>>>ewssssjffbbbbffbffffffffffffffffffbffffbffffffffffffjbHJHK36J>:>>>>>>>>>>::VCNYYYYYYYYY",
"YYYYYYYYYYNCM:>>>>>>>>>>>>-Sl.#JKJmsffzzbbfbbbbbfzffffffffffbfffffffffffffffffffffffffzfffffsmJJHK63J>=>>>>>>>>>>0-tZNYYYYYYYYYY",
"YYYYYYYYYYYNCt-0>>>>:>>>>>::Jk.#HKJHfsffffffffffffffffffffffffffffffbffffbfffffbffffzffffbjsmJSJK86Je:>>>>>>>>>>w-wCNYYYYYYYYYYY",
"YYYYYYYYYYYYNCr->>>>>>>>>>>-:SlX+HKJHzsfffffffbffbffbffffffbfffffbfffbfffffffffffffbfffffjbFJHJJ67J>:>>>>:0>>>>>:>VCNYYYYYYYYYYY",
"YYYYYYYYYYYYVCV>->>>>>>>>>>>>:JDXoDKJJmjffbfffffffffffffffffbffffffffffffffffffffffffffjsbJJHKJ3uS:->>>>>>>>>>>0-yZNYYYYYYYYYYYY",
"YYYYYYYYYYYYYVZB->>>>>>>>>>>>::BG#.hKKJFbsjffffffffffffffffffffffffffffbffbfbffffffffjszmJHHKD3pS>:>>>>>>>>>>>>-tCNYYYYYYYYYYYYY",
"YYYYYYYYYYYYYYNCx->>:>>>>>>>>>:=xK& 5JKJHFfsffffffbffffbbffffffffbjfffffffffffffffffjfmHJHKKi&nA::>>>>>>>>>>>>-rCNYYYYYYYYYYYYYY",
"YYYYYYYYYYYYYYYNCr->>>>>>>>>>>>>=rKk.+FKJJHmfsfzbffffffffffffffffbffffffffffzfffffgjxHJHHKH76Hx=:>>>>>>>>>>>>-wCCVYYYYYYYYYYYYYY",
"YYYYYYYYYYYYYYYNCCe->>>>>>>>>>>>>-:AP%X7JKJJHmxsgjfffffffzffffxfffbfffbffffffffjsbmHJJHKKp6kSe->>>>>>>>;>>>>->NCVYYYYYYYYYYYYYYY",
"YYYYYYYYYYYYYYYYVCCs9:>>>>>>>>>>>>:=xJkoohKKJJHFbjfsjjfffffffffffffffffffffjjsfbFHJHHJKn6uFc-:>>>>>>>>>>>>>:>VCNYYYYYYYYYYYYYYYY",
"YYYYYYYYYYYYYYYYYVCCe->>>>>>>>>>>>>>->AH7+#vKKJJKHFbxfsjfffffffzfffffjjjjsjbxFFJIHHKKmi7vAe->>>>>>>>>>>>>>->VCNYYYYYYYYYYYYYYYYY",
"YYYYYYYYYYYYYYYYYYVCCe-0>>>>>>>>>>>>>>-eSF7+$pJKJHJHHFmmxfffjjjsjssfffbbbFFHHJJHSKKviukAr-:>>>>>>>>>>>>>>->VCNYYYYYYYYYYYYYYYYYY",
"YYYYYYYYYYYYYYYYYYYVCCe->>>>>>>>>>>>>>>:-eSG7##8FKKKJIJJJHHFFFmmmFFFFHHJJJJHHHKKGp8ikAr:->>>>>>>>>>>>:>>->NCVYYYYYYYYYYYYYYYYYYY",
"YYYYYYYYYYYYYYYYYYYYVCCr-0>>>>>>>>>>>>>>>::rAFp&$3inHKKJHHHHJHJJJJJJJHHHJJKKJnpippvmr::>>>>>:>>>>>>>>>>=wNCVYYYYYYYYYYYYYYYYYYYY",
"YYYYYYYYYYYYYYYYYYYYYVCCt-:>>>>>>>>>>>>>>>>-:>xAnp7336ivHKKKKKKJKJJJKKKJSvpippkkcce-->>>>>>>>>>>>>>>>>-rCCNYYYYYYYYYYYYYYYYYYYYY",
"YYYYYYYYYYYYYYYYYYYYYYVNZy>->>>>>>>>>>>>>:>>>:;:exSFk86&678iiphvhvhhpppipuihncce;-:>>>>>>>>>>>>>>>>0:-tCCNYYYYYYYYYYYYYYYYYYYYYY",
"YYYYYYYYYYYYYYYYYYYYYYYVNZVe-0>>>>>>>>>>>>>>>>>>:-:>ryAmzhdppiiipipphdhvzccr>:=>>>>>>>>>>>>>>>>>>>>->BZNVYYYYYYYYYYYYYYYYYYYYYYY",
"YYYYYYYYYYYYYYYYYYYYYYYYYNCCt--0>>>>>>>>>>:>>>>>>>>>---:>rrxrcxcxxxrtre>>--:>>>>>>>>>>>>>>>>>>>>w>-eVCNNYYYYYYYYYYYYYYYYYYYYYYYY",
"YYYYYYYYYYYYYYYYYYYYYYYYYYNNCBw->>>>>>>>>>>>>>>>>>>>>>>:>>:-:--=::->::>:>>>>>>>>>>>>>>>>>>>>>>>>-:yCCVYYYYYYYYYYYYYYYYYYYYYYYYYY",
"YYYYYYYYYYYYYYYYYYYYYYYYYYYNVCCt;->>>>>>>>>>>>>:>>>>>>>>>>>>>>>>>>>>>>>>>>>>>>>>:>>>>>>>>>>>>>::rVCNNYYYYYYYYYYYYYYYYYYYYYYYYYYY",
"YYYYYYYYYYYYYYYYYYYYYYYYYYYYYVNZVe:->>>>>>>>>>>>>>>>>>>>>>>>>>>>>>>>>>>>>>>>>>>>:>>>>>>>>>>>;->BCCNYYYYYYYYYYYYYYYYYYYYYYYYYYYYY",
"YYYYYYYYYYYYYYYYYYYYYYYYYYYYYYNVCCye-00>>:>>>>>>>>>>>>>>>>>>>>>>>>:>>>>>>>>>>>>>>>>>>>>>>>-->yNCNVYYYYYYYYYYYYYYYYYYYYYYYYYYYYYY",
"YYYYYYYYYYYYYYYYYYYYYYYYYYYYYYYYVNCCye--:w>>>>>>>>>>>>>>>>>>>>>>>>>>>>>>>>>>>>:>>>>>>>>>--wxNZNNYYYYYYYYYYYYYYYYYYYYYYYYYYYYYYYY",
"YYYYYYYYYYYYYYYYYYYYYYYYYYYYYYYYYYVNCCyr>-;:>>>>>>>>>>>>>>>>>>>>>>>>>>>>>>>>>>>>>>:>>>-0eyCCCVYYYYYYYYYYYYYYYYYYYYYYYYYYYYYYYYYY",
"YYYYYYYYYYYYYYYYYYYYYYYYYYYYYYYYYYYYNNCCBtw:->>>>:>>>>>>>>>>>>>>>>>>:>>>>>>>>>>>>>:;->rBNCNVYYYYYYYYYYYYYYYYYYYYYYYYYYYYYYYYYYYY",
"YYYYYYYYYYYYYYYYYYYYYYYYYYYYYYYYYYYYYYNNNCNBr>:-->>>>>>>>>>>>>>>>>>>>>>>>>>>>>::-:>ryNCCNVYYYYYYYYYYYYYYYYYYYYYYYYYYYYYYYYYYYYYY",
"YYYYYYYYYYYYYYYYYYYYYYYYYYYYYYYYYYYYYYYYVNNCCMyre>:--::>>>>>>>>>>>>>>>>>>>:--->wrtBCCNNNYYYYYYYYYYYYYYYYYYYYYYYYYYYYYYYYYYYYYYYY",
"YYYYYYYYYYYYYYYYYYYYYYYYYYYYYYYYYYYYYYYYYYYNNCCCNMytse>>:--;-::99:::::-->>wrtyBNCCCNVYYYYYYYYYYYYYYYYYYYYYYYYYYYYYYYYYYYYYYYYYYY",
"YYYYYYYYYYYYYYYYYYYYYYYYYYYYYYYYYYYYYYYYYYYYYYVNNCCCCNMBytsrreereeeeerryyMNCCCCNNNYYYYYYYYYYYYYYYYYYYYYYYYYYYYYYYYYYYYYYYYYYYYYY",
"YYYYYYYYYYYYYYYYYYYYYYYYYYYYYYYYYYYYYYYYYYYYYYYYYYNVNNNCCCCCNNNNNNNCCCCCCCNNNNYYYYYYYYYYYYYYYYYYYYYYYYYYYYYYYYYYYYYYYYYYYYYYYYYY",
"YYYYYYYYYYYYYYYYYYYYYYYYYYYYYYYYYYYYYYYYYYYYYYYYYYYYYYYYNVVNNNNNCNNVNNNNYYYYYYYYYYYYYYYYYYYYYYYYYYYYYYYYYYYYYYYYYYYYYYYYYYYYYYYY"
};
