/* XPM */
static char *_600db70b5a944f2e40db745709919e5[] = {
/* columns rows colors chars-per-pixel */
"16 16 190 2 ",
"   c #FAA526",
".  c #FAA827",
"X  c #FAAA27",
"o  c #FAA72A",
"O  c #FBA72A",
"+  c #F5AB2B",
"@  c #F5AE2B",
"#  c #F3AC2C",
"$  c #F9AB2B",
"%  c #FBAA2B",
"&  c #FCAB2B",
"*  c #FAAF29",
"=  c #FAAD2B",
"-  c #FEAF2B",
";  c #FAAB2C",
":  c #FCB227",
">  c #FEB227",
",  c #FFB627",
"<  c #FAB029",
"1  c #FAB12A",
"2  c #FDB228",
"3  c #FEB02B",
"4  c #FBB729",
"5  c #FAB52B",
"6  c #FBB72B",
"7  c #FEB528",
"8  c #FFB628",
"9  c #FEB728",
"0  c #FAB12E",
"q  c #FCB829",
"w  c #FEB929",
"e  c #FCBA29",
"r  c #FEBA29",
"t  c #FDBA2A",
"y  c #FDBD29",
"u  c #FEBD29",
"i  c #FFBC2A",
"p  c #FFBD2A",
"a  c #FAB92C",
"s  c #FABE2D",
"d  c #FABD2E",
"f  c #F9BE2F",
"g  c #E3A636",
"h  c #E4A636",
"j  c #E7AD36",
"k  c #EAAB33",
"l  c #ECAB32",
"z  c #ECAC32",
"x  c #E8AA34",
"c  c #E9AB34",
"v  c #F2AB30",
"b  c #F3AC31",
"n  c #F2AD31",
"m  c #ECB133",
"M  c #EFB334",
"N  c #E6B039",
"B  c #E8B339",
"V  c #ECBC38",
"C  c #EEBD3D",
"Z  c #F0B331",
"A  c #F5B331",
"S  c #F3B432",
"D  c #F1B732",
"F  c #F7B530",
"G  c #F4B433",
"H  c #F5B632",
"J  c #F4B733",
"K  c #F3B334",
"L  c #F1B536",
"P  c #F7B831",
"I  c #F7BA31",
"U  c #F4BB33",
"Y  c #F7BF33",
"T  c #F0BA34",
"R  c #F8B930",
"E  c #F0BB3A",
"W  c #F2BE3B",
"Q  c #FBC028",
"!  c #FCC328",
"~  c #FDC428",
"^  c #FAC22F",
"/  c #FAC32F",
"(  c #FEC42C",
")  c #FBC828",
"_  c #FBC928",
"`  c #FCC928",
"'  c #FDCB28",
"]  c #FAD729",
"[  c #FCD62D",
"{  c #FAD928",
"}  c #FBD928",
"|  c #FADA28",
" . c #FADC28",
".. c #FADE28",
"X. c #FADF28",
"o. c #FADE2A",
"O. c #EFC036",
"+. c #E9C13D",
"@. c #EFC13C",
"#. c #F6C333",
"$. c #F8C033",
"%. c #FCC333",
"&. c #FAC430",
"*. c #FAC730",
"=. c #FAC733",
"-. c #FCC134",
";. c #FAC535",
":. c #FBC635",
">. c #FBC636",
",. c #FAC736",
"<. c #F1CA37",
"1. c #FACB32",
"2. c #FACE32",
"3. c #FACF33",
"4. c #FAC835",
"5. c #FBC836",
"6. c #FDC935",
"7. c #FECA34",
"8. c #FACE34",
"9. c #FBCF37",
"0. c #FCCE37",
"q. c #FCCF37",
"w. c #F2C33E",
"e. c #F2C43D",
"r. c #F3C43D",
"t. c #F2C53E",
"y. c #F1CB3B",
"u. c #F9CD38",
"i. c #FAD033",
"p. c #FAD233",
"a. c #FDD730",
"s. c #FAD234",
"d. c #FAD334",
"f. c #FAD136",
"g. c #FED634",
"h. c #FED635",
"j. c #FDDB32",
"k. c #FEDB32",
"l. c #FCDC30",
"z. c #FDDC30",
"x. c #FDDD31",
"c. c #FAD936",
"v. c #FADD36",
"b. c #FADD37",
"n. c #FADE37",
"m. c #F5D238",
"M. c #F4D03B",
"N. c #F5D23A",
"B. c #F3D53A",
"V. c #F4D539",
"C. c #F5D43A",
"Z. c #FCD03B",
"A. c #FDD03B",
"S. c #FFD03A",
"D. c #FAD438",
"F. c #FAD639",
"G. c #FBD63A",
"H. c #F7DC3B",
"J. c #F8D938",
"K. c #FAD83A",
"L. c #F8DA3A",
"P. c #F8DA3B",
"I. c #FADE38",
"U. c #F8DD3A",
"Y. c #FAE028",
"T. c #FAE32A",
"R. c #FAE32B",
"E. c #FAE02C",
"W. c #FAE12C",
"Q. c #FAE42E",
"!. c #FDE336",
"~. c #FEE437",
"^. c #F6E03D",
"/. c #F7E43D",
"(. c #FAE038",
"). c #FAE138",
"_. c #FAE238",
"`. c #FAE539",
"'. c #FAE63A",
"]. c #FAEF3B",
"[. c #FAED3C",
"{. c #FAEE3C",
"}. c #FAEF3C",
"|. c #FAEF3D",
" X c #FAEE3E",
".X c #FAF33E",
"XX c #FCF33D",
"oX c #FAF43E",
"OX c #FAFA40",
"+X c None",
/* pixels */
"+X+X+X+X+XE.x.k.k.x.E.+X+X+X+X+X",
"+X+X+XR.g.S.w.C C W -.( o.+X+X+X",
"+X+XE.S.e.N c l z c c n 3 ] +X+X",
"+XR.S.@.h # : , p r + j M - o.+X",
"+Xg.e.g : p n.(.a d ~.~.+.v p +X",
"E.S.B @ r &.{..X5 5 {.XXu.V = { ",
"l.t.m 8 d 2.'.(.= 1 '.I.7.y.n ' ",
"l.E M 8 / p.{.s.X s {.2.6.M.S ~ ",
"a.L D 8 *.D.{./ X 1.{.1.0.N.J ~ ",
"[ K T r p._.{.=   _.{.4.0.N.A ' ",
"o.0 O.d 5 p.OXn.n.oXF.4.F.m.$ ] ",
"+Xs A <.: * s..X{.D.;.u.U.J r +X",
"+XR.% U V.s.-.;.;.4.K./.#.O o.+X",
"+X+X} % J V.H.K.P.I.c.I $ ] +X+X",
"+X+X+XX.r $ J Y $.I ; 5 o.+X+X+X",
"+X+X+X+X+X{ ' Q Q _ | +X+X+X+X+X"
};
